<?xml version="1.0" encoding="UTF-8" standalone="no"?>
<!-- Generator: Adobe Illustrator 15.0.2, SVG Export Plug-In . SVG Version: 6.00 Build 0)  -->

<svg
   version="1.1"
   id="Capa_1"
   x="0px"
   y="0px"
   width="178"
   height="178"
   viewBox="0 0 177.99999 178"
   enable-background="new 0 0 595.28 841.89"
   xml:space="preserve"
   sodipodi:docname="AutoFirma.svg"
   xmlns:inkscape="http://www.inkscape.org/namespaces/inkscape"
   xmlns:sodipodi="http://sodipodi.sourceforge.net/DTD/sodipodi-0.dtd"
   xmlns="http://www.w3.org/2000/svg"
   xmlns:svg="http://www.w3.org/2000/svg"><defs
   id="defs3" /><sodipodi:namedview
   id="namedview3"
   pagecolor="#ffffff"
   bordercolor="#666666"
   borderopacity="1.0"
   inkscape:showpageshadow="2"
   inkscape:pageopacity="0.0"
   inkscape:pagecheckerboard="0"
   inkscape:deskcolor="#d1d1d1" />
<path
   fill-rule="evenodd"
   clip-rule="evenodd"
   fill="#98141b"
   d="m 89.199006,168.45 c -44.702,0 -80.9190001,-34.75 -80.9190001,-79.369998 0,-44.62 36.2180001,-80.8380005 80.9190001,-80.8380005 44.620004,0 80.838004,36.2180005 80.838004,80.8380005 0,44.619998 -36.218,79.369998 -80.838004,79.369998 z"
   id="path1" />
<path
   fill="#ffffff"
   d="m 89.194006,44.282002 c 22.320004,0 36.720004,2.809 43.272004,8.28 6.552,5.544 9.864,17.784 9.864,36.576 v 4.104 0 H 89.194006 v -12.023 h 38.880004 v 0 c -0.648,-10.368 -2.664,-16.92 -6.049,-19.729 -4.031,-3.456 -15.047,-5.184 -32.832004,-5.184 v -12.024 z m 0,77.399998 c 16.344004,0 27.000004,-0.937 31.824004,-2.88 4.896,-1.944 7.272,-6.049 7.272,-12.456 v 0 h 14.04 v 0 c 0,11.447 -3.313,18.863 -9.864,22.248 -6.552,3.384 -20.952,5.04 -43.272004,5.04 z m -0.072,11.952 c -22.32,0 -36.72,-2.736 -43.272,-8.208 -6.552,-5.473 -9.792,-17.641 -9.792,-36.359998 0,-18.792 3.24,-30.96 9.792,-36.504 6.552,-5.472 20.952,-8.28 43.272,-8.28 h 0.072 v 12.024 h -0.072 c -17.784,0 -28.8,1.728 -32.976,5.184 -3.24,2.809 -5.256,9.36 -5.904,19.729 v 0 h 38.952 v 12.023 h -39.168 v 0 c 0.432,12.312998 2.448,20.087998 6.264,23.327998 4.104,3.384 15.048,5.112 32.832,5.112 h 0.072 v 11.952 z"
   id="path2" />
<path
   fill-rule="evenodd"
   clip-rule="evenodd"
   fill="none"
   stroke="#98141b"
   stroke-miterlimit="10"
   d="m 89.239006,176.192 c -49.021,0 -88.73900015,-38.109 -88.73900015,-87.041998 0,-48.932 39.71800015,-88.65000046 88.73900015,-88.65000046 48.932004,0 88.650004,39.71800046 88.650004,88.65000046 0,48.932998 -39.718,87.041998 -88.650004,87.041998 z"
   id="path3" />
</svg>
